<?xml version="1.0" encoding="UTF-8" standalone="no"?>
<!-- Created with Inkscape (http://www.inkscape.org/) -->

<svg
   xmlns:dc="http://purl.org/dc/elements/1.1/"
   xmlns:cc="http://creativecommons.org/ns#"
   xmlns:rdf="http://www.w3.org/1999/02/22-rdf-syntax-ns#"
   xmlns:svg="http://www.w3.org/2000/svg"
   xmlns="http://www.w3.org/2000/svg"
   xmlns:sodipodi="http://sodipodi.sourceforge.net/DTD/sodipodi-0.dtd"
   xmlns:inkscape="http://www.inkscape.org/namespaces/inkscape"
   width="49.801025mm"
   height="10.023063mm"
   viewBox="0 0 49.801025 10.023063"
   version="1.1"
   id="svg91"
   inkscape:version="0.92.4 (5da689c313, 2019-01-14)"
   sodipodi:docname="stackoverflow.svg">
  <defs
     id="defs85" />
  <sodipodi:namedview
     id="base"
     pagecolor="#ffffff"
     bordercolor="#666666"
     borderopacity="1.0"
     inkscape:pageopacity="0.0"
     inkscape:pageshadow="2"
     inkscape:zoom="1.979899"
     inkscape:cx="102.51955"
     inkscape:cy="44.160918"
     inkscape:document-units="mm"
     inkscape:current-layer="layer1"
     showgrid="false"
     fit-margin-top="0"
     fit-margin-left="0"
     fit-margin-right="0"
     fit-margin-bottom="0"
     inkscape:window-width="1920"
     inkscape:window-height="1017"
     inkscape:window-x="1912"
     inkscape:window-y="-8"
     inkscape:window-maximized="1" />
  <metadata
     id="metadata88">
    <rdf:RDF>
      <cc:Work
         rdf:about="">
        <dc:format>image/svg+xml</dc:format>
        <dc:type
           rdf:resource="http://purl.org/dc/dcmitype/StillImage" />
        <dc:title></dc:title>
      </cc:Work>
    </rdf:RDF>
  </metadata>
  <g
     inkscape:label="Layer 1"
     inkscape:groupmode="layer"
     id="layer1"
     transform="translate(-56.838171,-4.7421147)">
    <path
       inkscape:connector-curvature="0"
       style="fill:#222426;stroke-width:0.26458332"
       d="m 68.082964,10.92872 -0.58209,-0.05292 c -0.44979,-0.02646 -0.60854,-0.211667 -0.60854,-0.529167 0,-0.3704156 0.26459,-0.5820826 0.79375,-0.5820826 0.34396,-0.02646 0.68792,0.07937 0.9525,0.2910416 l 0.34396,-0.3439586 a 1.984375,1.984375 0 0 0 -1.27,-0.370416 c -0.76729,0 -1.29646,0.396875 -1.29646,1.0318746 0,0.582083 0.37042,0.899583 1.05834,0.9525 l 0.58208,0.05292 c 0.42333,0.02646 0.58208,0.211667 0.58208,0.529167 0,0.423333 -0.37041,0.635 -0.9525,0.635 -0.42333,0.02646 -0.82021,-0.132293 -1.11125,-0.423334 l -0.34396,0.343958 c 0.39688,0.370417 0.92605,0.529167 1.45521,0.502708 0.84667,0 1.45521,-0.396875 1.45521,-1.084791 0,-0.687917 -0.42333,-0.899584 -1.05833,-0.9525 z m 4.18041,-1.6139586 c -0.58208,0 -0.92604,0.105834 -1.24354,0.502709 l 0.34396,0.3439576 a 0.9525,0.9525 0 0 1 0.89958,-0.3968746 c 0.66146,0 0.89959,0.2645826 0.89959,0.7672916 v 0.343958 h -1.05834 c -0.79375,0 -1.21708,0.396875 -1.21708,1.031875 0,0.264583 0.0794,0.529167 0.26458,0.714375 0.21167,0.238125 0.50271,0.3175 1.00542,0.3175 0.37042,0.02646 0.76729,-0.105833 1.03188,-0.370417 v 0.343959 h 0.52916 v -2.407709 c -0.0265,-0.7672906 -0.50271,-1.1906246 -1.45521,-1.1906246 z m 0.89959,2.3547916 c 0.0265,0.211667 -0.0265,0.449792 -0.18521,0.608542 a 1.0583333,1.0583333 0 0 1 -0.79375,0.238125 c -0.55563,0 -0.82021,-0.185209 -0.82021,-0.608542 0,-0.423333 0.26458,-0.635 0.79375,-0.635 h 1.00542 z m 2.56646,-1.8785416 c 0.3175,0 0.635,0.132292 0.8202,0.3968746 l 0.34396,-0.3439576 a 1.42875,1.42875 0 0 0 -1.16416,-0.529167 c -0.89959,0 -1.56105,0.608542 -1.56105,1.8256246 0,1.217084 0.68792,1.825625 1.56105,1.825625 0.44979,0.02646 0.87312,-0.185208 1.16416,-0.529166 l -0.34396,-0.343959 c -0.1852,0.264584 -0.5027,0.396875 -0.8202,0.396875 -0.3175,0.02646 -0.635,-0.132291 -0.82021,-0.396875 -0.18521,-0.291041 -0.26459,-0.608541 -0.23813,-0.9525 -0.0265,-0.343958 0.0529,-0.661458 0.23813,-0.9525 0.18521,-0.2645826 0.50271,-0.4233326 0.82021,-0.3968746 z m 4.445,-0.423333 h -0.635 L 77.925464,10.92872 V 7.7801784 h -0.52917 v 5.1329166 h 0.52917 v -1.296459 l 0.635,-0.635 1.19062,1.931459 h 0.635 l -1.48166,-2.275417 z m 2.43416,-0.05292 c -0.42333,0 -0.84666,0.132292 -1.13771,0.449792 -0.34395,0.3439576 -0.42333,0.7937496 -0.42333,1.4287496 0,0.661458 0.0794,1.084792 0.42333,1.42875 a 1.6139583,1.6139583 0 0 0 1.13771,0.449792 c 0.42334,0.02646 0.84667,-0.132292 1.13771,-0.449792 0.34396,-0.343958 0.42333,-0.767292 0.42333,-1.42875 0,-0.661458 -0.0794,-1.058333 -0.42333,-1.4287496 a 1.42875,1.42875 0 0 0 -1.13771,-0.449792 z m 0.44979,2.7781246 c -0.23812,0.211667 -0.60854,0.211667 -0.84666,0 -0.18521,-0.185208 -0.21167,-0.529166 -0.21167,-0.899583 0,-0.370417 0.0265,-0.714375 0.21167,-0.899583 0.23812,-0.211667 0.60854,-0.211667 0.84666,0 0.18521,0.185208 0.21167,0.529166 0.21167,0.899583 0,0.396875 -0.0265,0.714375 -0.21167,0.899583 z m 3.59834,-2.7516656 -0.74084,2.2754156 -0.74083,-2.2754156 h -0.97896 l 1.37584,3.7041656 h 0.71437 l 1.34938,-3.7041656 z m 2.54,0 c -0.9525,0 -1.61396,0.6614576 -1.61396,1.8520826 0,1.508125 0.84667,1.905 1.71979,1.905 0.52917,0.02646 1.05833,-0.185208 1.40229,-0.582083 l -0.55562,-0.529167 c -0.21167,0.211667 -0.52917,0.343958 -0.84667,0.3175 a 0.79375,0.79375 0 0 1 -0.82021,-0.714375 v -0.105833 h 2.30188 v -0.423334 c 0.0265,-1.005416 -0.55563,-1.7462496 -1.5875,-1.7462496 z m -0.71438,1.5081246 0.0794,-0.396875 c 0.10584,-0.238125 0.34397,-0.370417 0.60855,-0.370417 0.26458,0 0.50271,0.132292 0.60854,0.370417 l 0.0794,0.396875 z m 3.51896,-1.1377086 v -0.343958 h -0.89958 v 3.7041666 h 0.92604 v -2.2225 c 0,-0.343959 0.21167,-0.635 0.55562,-0.687917 h 0.0529 c 0.18521,0 0.37042,0.07937 0.47625,0.211667 l 0.68792,-0.6879166 a 1.0847917,1.0847917 0 0 0 -0.84667,-0.343958 c -0.34396,0 -0.68792,0.105833 -0.92604,0.370416 z m 2.01083,-0.740833 v 4.0745826 h 0.92605 v -2.910416 h 0.68791 V 9.4205924 h -0.68791 v -0.396875 c 0,-0.15875 0.0794,-0.3175 0.26458,-0.343959 h 0.39687 v -0.79375 h -0.52916 a 1.031875,1.031875 0 0 0 -1.05834,1.005417 z m 5.37105,0.343958 c -0.42334,0 -0.84667,0.132292 -1.13771,0.449792 -0.34396,0.3439576 -0.42334,0.7937496 -0.42334,1.4287496 0,0.661458 0.0794,1.084792 0.42334,1.42875 a 1.6139583,1.6139583 0 0 0 1.13771,0.449792 c 0.42333,0.02646 0.846656,-0.132292 1.137696,-0.449792 0.34396,-0.343958 0.42334,-0.767292 0.42334,-1.42875 0,-0.661458 -0.0794,-1.058333 -0.42334,-1.4287496 a 1.42875,1.42875 0 0 0 -1.137696,-0.449792 z m 0.44979,2.7781246 c -0.23813,0.211667 -0.60854,0.211667 -0.84667,0 -0.18521,-0.185208 -0.21167,-0.529166 -0.21167,-0.899583 0,-0.370417 0.0265,-0.714375 0.21167,-0.899583 0.23813,-0.211667 0.60854,-0.211667 0.84667,0 0.185206,0.185208 0.211656,0.529166 0.211656,0.899583 0,0.396875 -0.0265,0.714375 -0.211656,0.899583 z M 105.30983,9.3412174 104.70129,11.616633 103.934,9.3412174 h -0.66146 l -0.74083,2.3018746 -0.60854,-2.2754166 h -0.97896 l 1.13771,3.7041666 h 0.76729 l 0.76729,-2.328334 0.76729,2.328334 h 0.79375 l 1.13771,-3.7041666 h -1.00542 z M 97.054834,11.934133 V 7.9124674 h -0.92604 V 11.98705 a 1.0054167,1.0054167 0 0 0 0.9525,1.058333 h 0.66146 v -0.79375 h -0.34396 c -0.15875,0.02646 -0.29104,-0.05292 -0.34396,-0.211666 z M 70.914004,9.4470504 h -0.97896 v -1.164167 h -0.52917 v 3.6777086 c 0,0.529166 0.29105,0.9525 0.89959,0.9525 h 0.37041 V 12.4633 h -0.26458 c -0.34396,0 -0.47625,-0.185208 -0.47625,-0.529167 V 9.8968424 h 0.50271 z"
       id="path54" />
    <path
       inkscape:connector-curvature="0"
       style="fill:#bcbbbb;stroke-width:0.26458332"
       d="m 63.849624,13.574553 v -2.38125 h 1.05834 v 3.439583 h -7.9375 v -3.439583 h 1.05833 v 2.38125 z"
       id="path56" />
    <path
       inkscape:connector-curvature="0"
       style="fill:#f48024;stroke-width:0.26458332"
       d="m 63.055874,11.72247 0.21167,-0.79375 -4.25979,-0.873125 -0.18521,0.873125 z m -3.65125,-2.8574996 3.96875,1.8520826 0.37042,-0.7937496 -3.96875,-1.852083 z m 1.11125,-1.957917 3.33375,2.804583 0.55563,-0.661458 -3.36021,-2.804583 -0.55562,0.661458 z m 2.14313,-2.06375 -0.71438,0.529167 2.61938,3.518958 0.71437,-0.529167 z m -3.83646,7.9374996 h 4.23333 v -0.79375 h -4.23333 z"
       id="path58" />
  </g>
</svg>
